<?xml version="1.0" encoding="utf-8"?>
<!-- Generator: Adobe Illustrator 18.0.0, SVG Export Plug-In . SVG Version: 6.00 Build 0)  -->
<!DOCTYPE svg PUBLIC "-//W3C//DTD SVG 1.1//EN" "http://www.w3.org/Graphics/SVG/1.1/DTD/svg11.dtd">
<svg version="1.1" id="Layer_1" xmlns="http://www.w3.org/2000/svg" xmlns:xlink="http://www.w3.org/1999/xlink" x="0px" y="0px"
	 viewBox="0 0 522 195" style="enable-background:new 0 0 522 195;" xml:space="preserve">
<style type="text/css">
	.st0{fill:#FC3;}
</style>
<g>
	<path class="st0" d="M100.6,190.3c-52.1,0-79.8-40.9-79.8-95.1C20.8,54.6,43.6,7,94.3,7c14.5,0,35.3,6,41.7,26h3.2l-5.7-33h-2.8
		c-0.4,2-2.6,5-7.2,5C112.8,5,109.1,2.1,94,2.1c-52.1,0-94,43.6-94,94C0,156.3,45.3,195,97.9,195c24.9,0,43-8.5,57-20.6l-7.5,0.2
		C132.1,185.6,116.2,190.3,100.6,190.3z"/>
	<path class="st0" d="M357.5,183.1c-15.4,0-24.9-25.7-31.3-51.8l-0.3-1.3c-2.7-11.3-4.8-22.5-6.5-31.8c-10-54.7-15.5-81.7-38.1-81.7
		c-11.3,0-17.7,6.4-17.7,6.4l0.6,0.8c3.2-2.1,6-2.3,8.5-2.3c10,0,13,11.9,17.2,23.2l-20.2,106.2c-0.3,1.6-0.9,3.3-1.7,4.8
		c0,0,0,0,0,0c-0.3,0.5-0.7,1-1,1.4c-11.1-18.9-20.9-43.8-28.2-59c11.1-7.5,17.5-21.6,17.5-32.1c0-20.2-14-29.9-31.7-29.9H188v3h1.4
		c7.2,0,7.6,5.6,7.6,9.4v102.3c0,4.5-0.8,10.3-7.8,10.3h-0.4c-4.9,0-8.9-2.2-10.4-9.4l-9.2-42c8.7,0.6,16.8,3.2,17.5,5.8
		c-0.9-6.8-12.5-8.7-18.3-9.1l-16-73.6c-2.1,1.7-7.9,6-15.5,8.3c0,0,0.8,3.8,1.9,9.2l-12.5,64.1c-2.3,0.4-4.5,0.4-6.8,0.4
		c-13,0-18.5-7-18.5-14c0-5.8,4.3-9.8,10.9-9.8c-3.4-3-7.2-5.1-10.9-5.1c-7.2,0-14.5,5.3-14.5,14c0,14.7,16.2,20.2,30.2,20.2
		c3,0,6-0.2,8.7-0.6l-5.8,30.8c-1.5,6-3.7,10.4-11.7,10.4v3.3h26v-3.3c-8-0.4-9.1-4.3-8.7-7.4l6.3-34.9c7.5-1.7,13.6-4.5,20-6.4
		c4.7,22.5,8.7,41.7,8.7,41.5c0.8,5.7-1.3,7.2-7.3,7.2v3.3h34h1.9H223v-3h-1.9c-6.8,0-7.1-5.8-7.1-10.3V103h7.5
		c15.2,34,25.6,54.5,33.4,66.6c1,1.5,2,3,3,4.4c2.7,3.8,5,6.3,7.1,8c6.3,5.7,13.8,8.9,22.8,7.8c6.6-0.8,12.9-3.5,17.3-8.9l-3,0.6
		c-1,1.3-3.5,2.2-5.6,2.4c-2.6,0.3-6-1-9.9-3.5c-0.1,0-0.1-0.1-0.2-0.1c-0.8-0.5-1.6-1-2.4-1.6c-4.4-3.4-8.7-8.6-12.8-14.6h1.4
		c0,0,0,0,0,0H285v-3.3c-8-0.4-10-3.2-9.2-8.3l5.3-30.4H306c5.1,24,13.2,66,42.1,66c6.6,0,13.2-2,18.3-6.7l-3,0.1
		C362.2,182.6,359.6,183.1,357.5,183.1z M132.6,113.5l9.1-49.6l9.2,44.5C144.7,109.9,139.1,112,132.6,113.5z M223.8,98H214V40h5.2
		c7.4,0,19.2,2,19.2,27.1C238.5,84.3,232.4,98,223.8,98z M282.1,117L293,57.4c4.3,19.4,12.1,59.6,12.1,59.6H282.1z"/>
	<path class="st0" d="M518.5,132c-2.8,26-11.5,28-20,28h-7.9c-1.5,0-4.5-0.7-4.5-5.6v-106c0-3.8,0-9.4,6.8-9.4h1.2v-3h-35v3h1.3
		c8.1,0,7.7,5.6,7.7,9.4v99.2v1.5v1.5c0,4.2,0.1,10.3-6.5,10.3h-0.9c-4.9,0-8.6-2.2-10.1-9.4l-4.4-21.2v0l-21.6-97.6
		c-2.1,1.7-8,6-15.6,8.3c0,0,0.7,3.5,1.8,9L397.7,116h0l-6.7,34.1c-1.5,6-3,10.6-12,10.6v3.3h27v-3.3c-8-0.4-9.2-4.2-8.9-7.2
		l5.5-30.4H425c0.2,0,0.5,0,0.7,0.1c0-0.1,0-0.2,0-0.2c0,0,0.1,0,0.1,0c3.3,15.8,6.4,30.8,6.4,30.7c0.8,5.7-1.2,7.2-7.2,7.2v3.3h34
		h1.5h19.4c0,0,0,0,0,0h1.4c-1.8-3-3.7-5.7-5.8-8.2c2.1,2.6,4,5.2,5.8,8.2H522v-32H518.5z M405.4,118l8-54l11.3,54H405.4z"/>
	<path class="st0" d="M403,39.2V36h-27v3.2c7,0,8.7,2.3,8.7,6.4c0,2.3-10,45.4-16,71.4c0,0,0,0,0,0c-1.3,6-2.7,11.9-3.2,14
		c-0.2-1.1-0.5-2.7-0.9-4.3c0,0,0,0,0,0l-0.2-0.8c-0.9-4.4-2-9.6-2.6-12.2c0,0-0.1,0-0.1,0l-18.6-84.7c-2.1,1.7-7.9,6-15.5,8.3
		c0,0,0.8,3.8,1.9,9.2l2.8,13.6l11.3,53.9l12.6,49.8h6.6l11.5-47.6l16.2-67C392.1,43.7,397,39.2,403,39.2z"/>
</g>
<g>
</g>
<g>
</g>
<g>
</g>
<g>
</g>
<g>
</g>
<g>
</g>
<g>
</g>
<g>
</g>
<g>
</g>
<g>
</g>
<g>
</g>
<g>
</g>
<g>
</g>
<g>
</g>
<g>
</g>
</svg>
