<?xml version="1.0" encoding="utf-8"?>
<!-- Generator: Adobe Illustrator 18.0.0, SVG Export Plug-In . SVG Version: 6.00 Build 0)  -->
<!DOCTYPE svg PUBLIC "-//W3C//DTD SVG 1.1//EN" "http://www.w3.org/Graphics/SVG/1.1/DTD/svg11.dtd">
<svg version="1.1" id="Layer_1" xmlns="http://www.w3.org/2000/svg" xmlns:xlink="http://www.w3.org/1999/xlink" x="0px" y="0px"
	 viewBox="0 0 1167.9 588.6" style="enable-background:new 0 0 1167.9 588.6;" xml:space="preserve">
<style type="text/css">
	.st0{fill:url(#CaravalGradient)} /*#BD2027;opacity:1.0;*/
</style>
<defs>
    <linearGradient id="CaravalGradient">
        <stop offset="5%" stop-color="#6e0d38" />
        <stop offset="95%" stop-color="#e52229" />
    </linearGradient>
</defs>
<g>
	<path class="st0" d="M316.3,424.5c-0.2,0.1-0.1,0.2-0.1,0.4c0.1,0.2,0.1,0.4,0.3,0.3c0.2-0.1,0.1-0.2,0.1-0.4
		C316.6,424.6,316.5,424.4,316.3,424.5z"/>
	<path class="st0" d="M356,356.4c-0.5,0.2-0.8,0.5-0.7,0.8l0.1,0.2c0.4,0.5,0.8,0.7,1.2,0.6c0.2-0.1,0.6-0.6,0.4-1.3
		C356.8,356.4,356.3,356.3,356,356.4z"/>
	<path class="st0" d="M178.7,448.5c-0.4,0.1-0.7,0.4-0.5,0.8l0.1,0.2c0.4,0.5,0.8,0.5,1,0.5c0.4-0.1,0.7-0.4,0.7-1
		C179.6,448.3,179.2,448.3,178.7,448.5z"/>
	<path class="st0" d="M326.6,374.3c-0.4,0.1-0.7,2-1.1,2.2c-3.1,2.8-4.1,3.2-7.6,4.3c-18.9,6.3-40,5.2-59.2,1.8
		c-7-0.5-16.1-3.7-18.2-2.9c-2.9,1-3.9,2.7-3,5.4c0.2,0.5,1.1,2,1.2,2.4c28.3,5,58.9,3.8,86.1-5.3c7.3-4,18.2-9.7,24-17.1
		c-6.4,1.9-11.2,8.4-18.4,9.8C330.1,374.9,327,374.2,326.6,374.3z"/>
	<path class="st0" d="M353.3,359.1c-0.5,0.2-0.8,0.5-0.7,0.8l0.1,0.2c0.4,0.5,0.8,0.7,1.2,0.6c0.2-0.1,0.6-0.6,0.4-1.3
		C354,359.1,353.6,359,353.3,359.1z"/>
	<path class="st0" d="M177,451.2c-0.2,0.1-0.1,0.2-0.1,0.4c0,0,0.1,0.2,0.2,0.1c0.2-0.1,0.1-0.2,0.1-0.2
		C177.2,451.4,177.2,451.2,177,451.2z"/>
	<path class="st0" d="M339.5,348.1l0.1,0.2c0.4,0.5,1.1,0.4,1.7,0.2c0.7-0.2,1.4-0.7,1.6-1.3c-0.1-0.4-1-0.5-2-0.1
		C340.1,347.3,339.4,347.7,339.5,348.1z"/>
	<path class="st0" d="M350.6,361.9c-0.5,0.2-0.8,0.5-0.7,0.8l0.1,0.2c0.4,0.5,0.8,0.7,1.2,0.6c0.2-0.1,0.6-0.6,0.4-1.3
		C351.3,361.8,350.9,361.7,350.6,361.9z"/>
	<path class="st0" d="M321.2,385.1c-1.4,1.3-11,10.3-12.4,11.4c-6.3,5.1-14.3,8.4-21.8,10.9c-34.1,11.4-68.5,0.3-102.9-5.3
		c-5.1-0.9-34.1-4.8-41.9-5.8c-21.4-2.7-43.1,1.8-63.2,8.5c-19.1,6.4-36.3,14.4-43.5,34.4c-1.9,5.2-1.4,7.7-0.1,11.7
		c3.7,11.2,4.5,14,12.6,20.3c12.9,9.9,40.9,8.2,55.3,3.4c10.8-3.6,27.2-11.7,34.6-20.8c-7.8,2.6-16.6,11-22.7,13
		c-19.5,6.5-25.3,8.5-33,9.2c-16.5,0.5-37.2-2-43.3-20.2c-1.4-4.3-3.1-10.4-1.2-15.5c7.9-19.7,21-25.5,39.9-31.8
		c39-13,74.4-2.4,113.5,4c39.1,7.2,63,8.2,92.7-1.7c4.1-1.4,14.9-5.4,15-5.4c1.6-0.5,10.1-5.8,12.1-7.7c2.9-1.4,11.4-12,11.9-13
		L321.2,385.1z"/>
	<path class="st0" d="M230.6,379.3c-0.7-2.2-2.4-2.8-4.3-2.2c-0.6,0.6-2,3.5-2.2,4.3c1.4,1.3,3.4,2.5,5.1,1.9
		C231.3,382.7,231.1,380.9,230.6,379.3z"/>
	<path class="st0" d="M207.8,381.5c1.4-0.1,9.3-1.7,10.5-2.1c-0.5-1.6-7.5-9.7-8.9-9.3l-11.4,3.8C200.7,377.1,206,382.1,207.8,381.5
		z"/>
	<path class="st0" d="M329.5,371.9c0.2-0.1,0.3-0.3,0.2-0.5c-0.1-0.2-0.3-0.3-0.5-0.2c-0.2,0.1-0.1,0.2-0.1,0.4
		C329.2,371.8,329.3,372,329.5,371.9z"/>
	<path class="st0" d="M139.6,450.5c-0.5,0.2-0.8,0.7-0.7,1c0.4,0.5,0.8,0.7,1.2,0.6c0.4-0.1,0.6-0.6,0.4-1.3
		C140.4,450.4,140,450.4,139.6,450.5z"/>
	<path class="st0" d="M189.4,375c1.6-0.5,2.9-2.2,2.2-4.3c-0.5-1.6-2.9-0.8-3.8-0.5c-1.6,0.5-3.1,1.4-2.5,3.3
		C186.1,375.8,187.8,375.6,189.4,375z"/>
	<path class="st0" d="M141.6,448.6c0,0-0.1,0.2-0.1,0.4l0.2,0.1c0.2-0.1,0.3-0.3,0.3-0.3C142,448.7,141.8,448.6,141.6,448.6z"/>
	<path class="st0" d="M89.7,428.3c-3.8,1.7-12.9,10.1-13.5,13.6l1.6-0.5c8.2-5.5,14.3-10.2,23.5-13.3c11.7-3.9,20.9-4.2,32.9-2
		c-10.5-6.9-22.6-5.1-33.9-1.3L89.7,428.3z"/>
	<path class="st0" d="M331.2,366.3l-0.2-0.7c-1.3,1.4-1.1,2.2-0.5,3.8C331.5,368.4,331.6,367.6,331.2,366.3z"/>
	<path class="st0" d="M358.7,353.7c-0.5,0.2-0.8,0.5-0.7,0.8l0.1,0.2c0.4,0.5,0.8,0.7,1.2,0.6c0.2-0.1,0.6-0.6,0.4-1.3
		C359.5,353.7,359,353.6,358.7,353.7z"/>
	<path class="st0" d="M211.6,344.1c28.9,5.4,57.7,21.8,87.9,19.3c10.5-0.9,20.1-3.5,30.2-6.9l2.3,6.9c-1.2-5.4,1.5-10.5,6.5-13
		l-4.9,1.6c-4.3-12.1-8.4-20.8-19.1-28.1c5.1-2.1,8.8-4.9,8.8-8.2c0-2.7-4.4-2.5-5.1-2.5c-4.2,2-8.2,4-12.1,5.8
		c-1.9-0.9-3.9-1.8-6.1-2.7c-2.8-1.1-12.6-3-15.2-2.1l2.2,1.1c5.7,1.7,11,3.4,15.8,5.3c-8.3,3.7-16.6,6.4-26.5,6.4
		c-8.2,0-7.8,0-14.7-1.7c-3.8-1-4-2.1-6.8-1.7c3.6,5.9,20.2,6.9,26.3,6.9c4.9,0,20-1.7,30.7-5.4c7.5,4.6,13.3,11,16.9,21.9
		c0.3,0.9,1,4.3,1.1,4.6l-1.1,2.2c-0.7,0.2-5.1,2.1-6.7,2.7c-10.5,3.5-20.8,3.9-31.7,1.2l-50-14c-21.7-6-51.9-6.3-72.1,0.4
		C182.8,342.7,197,341.4,211.6,344.1z"/>
	<path class="st0" d="M481.1,304.3c-0.2,0-0.4,0.2-0.4,0.4s0.2,0.4,0.4,0.4c0.2,0,0.2-0.2,0.2-0.4S481.3,304.3,481.1,304.3z"/>
	<path class="st0" d="M452,304.3c-0.2,0-0.4,0.2-0.4,0.4s0.2,0.4,0.4,0.4s0.2-0.2,0.2-0.4S452.2,304.3,452,304.3z"/>
	<path class="st0" d="M446.9,301.3c0.6,1.5,1.5,1.7,3.4,1.7C449.3,301.3,448.6,301.3,446.9,301.3z"/>
	<path class="st0" d="M200.1,308.1l-6.8-6.9v0.6C193.3,303.8,198.4,308.9,200.1,308.1z"/>
	<path class="st0" d="M201.6,309.8c8.4,8.4,20.2,6.7,30.8,6.7c0.8,0,6.3-1.8,6.9-1.8h5.1c1.5-2,6.3-11.5,7-13.6
		c0.2-6.1-0.2-11.9-7-11.9c-4.8,0-6.9,6.5-6.9,10.3c0,4,1.9,8,1.7,12c-1,0.4-6.1,3.4-8.6,3.4C217,315,213,312.7,201.6,309.8z
		 M244.5,291c0.2,0,0.5-0.2,0.7-0.2c3.2,0,4.5,6.1,4.5,7.6c0,4.9-3.1,8.9-6.9,11.4c-1.5-1.7-1.6-4-1.6-6.3v-3.4
		C241.3,296.7,240.4,293.9,244.5,291z"/>
	<path class="st0" d="M491.4,315h-0.2c-0.4,0-0.6,0.4-0.6,1c0,0.4,0.2,0.8,0.6,0.8c0.6,0,1-0.6,1-0.8
		C492.1,315.6,491.8,315.2,491.4,315z"/>
	<path class="st0" d="M482.8,306c-0.2,0-0.4,0.2-0.4,0.4c0,0.2,0.2,0.4,0.4,0.4s0.2-0.2,0.2-0.4C483,306.2,483,306,482.8,306z"/>
	<path class="st0" d="M449.3,321.1c-0.4,0-0.8,0.2-0.8,0.6c0,0.6,0.6,1,0.8,1c0.4,0,0.8-0.2,1-0.8v-0.2
		C450.3,321.3,449.9,321.1,449.3,321.1z"/>
	<path class="st0" d="M253.1,321.8c-1-1.7-2.1-1.7-3.4-1.7C250.3,321.6,251.2,321.8,253.1,321.8z"/>
	<path class="st0" d="M462.3,312.9c-0.2,0-0.4,0.2-0.4,0.4s0.2,0.4,0.4,0.4c0.2,0,0.2-0.2,0.2-0.4S462.5,312.9,462.3,312.9z"/>
	<path class="st0" d="M464,314.6c-0.2,0-0.4,0.2-0.4,0.4c0,0.2,0.2,0.4,0.4,0.4s0.2-0.2,0.2-0.4C464.2,314.8,464.2,314.6,464,314.6z
		"/>
	<path class="st0" d="M465.7,316.3c-0.2,0-0.4,0.2-0.4,0.4s0.2,0.4,0.4,0.4c0.2,0,0.2-0.2,0.2-0.4S465.9,316.3,465.7,316.3z"/>
	<path class="st0" d="M460.6,311.2c-0.2,0-0.4,0.2-0.4,0.4c0,0.2,0.2,0.4,0.4,0.4s0.2-0.2,0.2-0.4
		C460.7,311.4,460.7,311.2,460.6,311.2z"/>
	<path class="st0" d="M479.4,302.6c-0.2,0-0.4,0.2-0.4,0.4c0,0.2,0.2,0.4,0.4,0.4s0.2-0.2,0.2-0.4
		C479.6,302.8,479.6,302.6,479.4,302.6z"/>
	<path class="st0" d="M453.7,306.4c0.6,1.5,1.5,1.7,3.4,1.7C456.2,306.4,455.4,306.4,453.7,306.4z"/>
	<path class="st0" d="M459,309.8c0-0.2,0-0.4-0.2-0.4c-0.2,0-0.4,0.2-0.4,0.4c0,0.2,0.2,0.4,0.4,0.4C459,310.2,459,310,459,309.8z"
		/>
	<path class="st0" d="M445.1,299.6v-0.2c0-0.4-0.4-0.6-1-0.6c-0.4,0-0.8,0.2-0.8,0.6c0,0.6,0.4,1,0.8,1
		C444.6,300.3,444.9,300.1,445.1,299.6z"/>
	<path class="st0" d="M434.9,294.4c0-0.6-0.4-0.8-1-0.8c-0.4,0-0.8,0.2-0.8,0.6c0,0.6,0.4,1,0.8,1
		C434.3,295.2,434.7,295,434.9,294.4z"/>
	<path class="st0" d="M488,311.2c-0.2,0-0.4,0.2-0.4,0.4c0,0.2,0.2,0.4,0.4,0.4s0.2-0.2,0.2-0.4C488.1,311.4,488.1,311.2,488,311.2z
		"/>
	<path class="st0" d="M489.7,312.9c-0.2,0-0.4,0.2-0.4,0.4s0.2,0.4,0.4,0.4c0.2,0,0.2-0.2,0.2-0.4S489.9,312.9,489.7,312.9z"/>
	<path class="st0" d="M486.2,309.5c-0.2,0-0.4,0.2-0.4,0.4c0,0.2,0.2,0.4,0.4,0.4c0.2,0,0.2-0.2,0.2-0.4
		C486.4,309.7,486.4,309.5,486.2,309.5z"/>
	<path class="st0" d="M484.5,307.8c-0.2,0-0.4,0.2-0.4,0.4c0,0.2,0.2,0.4,0.4,0.4c0.2,0,0.2-0.2,0.2-0.4
		C484.7,307.9,484.7,307.8,484.5,307.8z"/>
	<path class="st0" d="M247.6,318.4c0,0.2,0.2,0.4,0.4,0.4c0,0,0.2-0.2,0.2-0.4c0-0.2-0.2-0.4-0.2-0.4
		C247.8,318,247.6,318.2,247.6,318.4z"/>
	<path class="st0" d="M453.7,281c-31.4-22.8-68.3-35.9-106.4-39.5c-12.2-2.1-26.8-1.4-30.8-3.5c-1-0.8-6.3-9.4-6.9-10.5
		c-0.4-0.2-2.9-2.7-3.4-3.4c-14.5-12-31.2-15.6-49.7-15.6c-8.7,0-17.7,1.3-26.1,4.2c0.4-2.8,0.7-6.4,0.6-7.9
		c-0.1-13.6-9.7-25.5-20.4-32.4c-14.5-9.3-30.5-11.2-46.4-4.2c-15.7,7.1-21.4,17-32.2,33.8c-8.1,14.4-4.4,30.4-0.2,46.2
		c3.7,13.8,17.9,28.3,29.4,35.7c7.7,4.9,16.5,8.7,25.6,11c0.3,1,0.5,2.1,0.8,3.2l-20.5,25.7c-1.1,1.7-1.9,3.2-1.7,5.1
		c5.4-8.6,16.7-21.3,28.7-32.5c6.6,1,13.3,1.2,19.8,0.5c2.2-0.2,14-2.9,17-3.7c1.7-0.8,3.1-1.5,4-3l0.3-0.5
		c-14.1,3.8-26.3,5.7-38.3,4c0.9-0.8,1.8-1.6,2.7-2.4c18.5-16.6,42.1-27,65.3-34.3c10.1-3.2,21.9-6.8,32.3-6.8c4.8,0,16,1,18.6,1
		c0,1,0.4,4.8,0.4,5.9c-2.1,14.7-17.1,24-30.8,24c-9.1,0-12.7-3-22.3-5.1c0.2,0.6,9.5,6.9,12,6.9c0.2,0,7.4,0.4,10.3,0.4
		c1.7,0,8.9-0.5,10.3-0.5c14.7-6.5,21.5-16.6,24-32.6h14.7c51.9,0,101.2,19,141.4,52h1.7C470.8,292.7,462.3,287.2,453.7,281z
		 M169.4,282.5c-20.3-13-31.5-30.7-35.4-54.2c-2.4-14.4,2.1-26.8,9.7-38.7c14.4-22.4,41.8-31,65.4-15.9
		c12.2,7.8,21.4,22.8,19.7,37.8c0,0.4-0.1,1-0.3,1.8c-6.7,2.5-13,6-18.4,10.7c-5.2,4.5-10.1,9.4-14.3,14.7c-3.8-2-7.6-3-11.5-5.5
		c-13.5-8.7-16.3-23.1-14-38.3c-3,4.3-2.6,5.1-2.8,10.8c-0.6,12.2,4.9,22,15.1,28.6c4.3,2.7,7.7,4.8,12.3,5.4
		c-7.5,9.8-12.4,21-12.4,34.2c0,6.9,1.6,11.4,3.2,16.8C180.6,288.9,175.1,286.2,169.4,282.5z M311.4,239.6
		c-45.7,3.5-82.8,25-118,53.1c-1.4-0.3-2.7-0.6-4.1-1c-1.2-1.8-2.5-4.1-3.1-5.9c0-1.7-0.4-9.7-0.4-11.4c0-18.1,5.1-28.2,19.2-40
		c4.6-4,12-8.3,19.8-11.7c-1.6,3.4-3.6,7.1-5.4,10c0.7-1.2,4.7-6.5,5.6-8c0.4-0.7,1-1.6,1.6-2.7c7-2.9,14-4.8,19.5-4.8l12.9-1.3
		l19.8,1.3c11.6,0,25.3,8.8,32.5,17.3c0.6,0.6,1.7,3,1.7,3.4C313.1,238.1,311.9,239.6,311.4,239.6z"/>
	<path class="st0" d="M436.6,296.1c1.9,1.1,2.9,1.9,5.1,1.7C440.8,295.6,438.3,296.1,436.6,296.1z"/>
	<path class="st0" d="M352.5,294.4c-5.5,2.1-11,4.8-11,11.2c10.1,0,17.3-5.5,26.5-9.5c11-4.8,21.3-6.8,33.7-6.8
		c9.1,0,17.1,2.4,26.4,3.4h3.4c-10.7-6-25.1-6.9-37.1-6.9C379.7,285.9,366.2,289.3,352.5,294.4z"/>
	<path class="st0" d="M337.4,309.8c0-3.4-0.8-5.1-4.8-5.1c-2.5,0-4.6,2.7-4.6,5.1c0,2.5,2.1,5.1,4.6,5.1
		C336.7,315,337.4,313.3,337.4,309.8z"/>
	<path class="st0" d="M245.9,316.7c0,0.2,0,0.4,0.2,0.4c0.2,0,0.2-0.2,0.2-0.4s0-0.4-0.2-0.4C245.9,316.3,245.9,316.5,245.9,316.7z"
		/>
	<path class="st0" d="M357.6,325.3c0,0,7.6-1.7,10.3-3.4c12.9-4.8,15.8-6.7,38.2-6.7c6.5,0,14.8,1.5,25.3,1.5
		c4.8,1.1,10.1,3.4,15.4,3.4c-12-7.6-24.7-8.6-38.4-8.6C390.5,311.6,372.4,314.2,357.6,325.3z"/>
	<path class="st0" d="M839.8,309.8c0-2.9-2.5-5.1-5.5-5.1c-3.4,0-3.8,2.3-3.8,5.5c0,3,0.8,4.8,4.8,4.8
		C837.7,315,839.8,312.3,839.8,309.8z"/>
	<path class="st0" d="M970,291c0-0.2,0-0.4-0.2-0.4c-0.2,0-0.4,0.2-0.4,0.4c0,0.2,0.2,0.4,0.4,0.4C970,291.4,970,291.2,970,291z"/>
	<path class="st0" d="M810.3,325.1c0-0.4-0.4-0.6-1-0.6c-0.4,0-0.8,0.2-0.8,0.6c0,0.6,0.6,1,0.8,1c0.4,0,0.8-0.2,1-0.8V325.1z"/>
	<path class="st0" d="M805.2,323.4c0,0.6,0.6,1,0.8,1c0.4,0,0.8-0.2,1-0.8v-0.2c0-0.4-0.4-0.6-1-0.6
		C805.6,322.8,805.2,323,805.2,323.4z"/>
	<path class="st0" d="M992.3,314c0,1.9,1.7,3.4,3.4,4.4c0.4-2.1-1.4-4-3.4-5.1V314z"/>
	<path class="st0" d="M988.2,309.8c0,0.2,0.2,0.4,0.4,0.4s0.2-0.2,0.2-0.4c0-0.2,0-0.4-0.2-0.4S988.2,309.7,988.2,309.8z"/>
	<path class="st0" d="M989.9,311.6c0,0.2,0.2,0.4,0.4,0.4c0.2,0,0.2-0.2,0.2-0.4c0-0.2,0-0.4-0.2-0.4
		C990.1,311.2,989.9,311.4,989.9,311.6z"/>
	<path class="st0" d="M997.3,320.9c0,1.9,1.7,3.4,3.4,4.4c0.4-2.1-1.4-4-3.4-5.1V320.9z"/>
	<path class="st0" d="M736.5,316.7l19.4-2.1l21.9,1.5c8.8,0.4,16.7,5.7,25.7,5.7c-15.2-8.2-26.8-10.3-44-10.3
		c-16.2,0-27.4,1.7-41.9,10.3c-0.2,0,8.4-1.9,12-3.4C730.8,318,735.5,317.1,736.5,316.7z"/>
	<path class="st0" d="M800,296.1c7.4,3.4,16.7,9.7,26.1,9.5c0-6.5-5.1-9.1-10.7-11.2c-13.7-5.1-28.2-8.5-42.8-8.5
		c-26.8,0-54.2,9.8-72.1,30.8h1.7c18.3-17,39.4-27.4,64.5-27.4C778.5,289.3,789,291.4,800,296.1z"/>
	<path class="st0" d="M848,249.7c0,10,5.1,21.2,13.7,27.5c7.8,5.1,9.7,5.6,20.6,5.6c11.6,0,11.8-0.4,20.5-5.5
		c1.7-0.8,1.7-1.5,1.7-3.4c-8.2,4.8-13,6.9-22.3,6.9c-14.1,0-26.9-8-30.9-22.3v-0.8c0-1.9,1-6,1-6.9c2.9,0,13.4-1,18.2-1h1.5
		c32.5,3,68.7,19,94.4,40h1.7c-8-10-18.8-16-29.1-22.5c-25.1-15.8-53.3-24.1-82.4-27.5c-1.5-0.8-1.7-1.8-1.7-3.5
		c14.8-16.9,28.5-20.2,50.4-20.2c14.1,0,22.6,1.5,35.4,6.3c3.8,1.4,7.4,3,10.9,4.9c1.5,2.1,3.4,4.8,3.9,5.5c-1-1.5-2-3.2-2.9-5
		c5.1,2.8,9.7,6.1,13.6,9.9l-1.5-0.3l0.4,0.7c0.8,1.2,1.8,1.9,3.1,2c8.3,9,13.1,20.5,13.1,34.9v9.3c0,0.2-1.3,6.6-3.3,9.2
		c-1,0.2-1.9,0.3-2.9,0.4c-0.8-0.5-1.7-1-1.9-1h-1.7c0.4,0,0.7,0.8,1.1,1.2c-10.4,0.6-21.2-1.3-33.3-4.5l0.3,0.5c1,1.5,2.4,2.2,4,3
		c3.1,0.8,14.8,3.5,17,3.7c4.6,0.5,9.2,0.6,13.8,0.2c0.4,1,0.6,1.9,0.4,2.7c-8.8,11.8-21.1,15.4-35.8,15.4c-2.7,0-4.9-0.4-10.9-3.4
		v-18.8c0-2.3-4-3.8-5.7-3.8c-5.5,0-6.2,5.1-6.2,9.5c0,7.6,5.2,9.6,5.2,14.7c0,6.1-17.1,13.6-22.2,13.6H892
		c-10.2,0-18.5-2.6-26.8-6.3c4.8-1.9,10.1-3.5,15.8-5.2l2.2-1c-2.5-0.8-12.4,1.1-15.2,2.2c-2.2,0.9-4.3,1.8-6.2,2.7
		c-4.1-1.9-8.3-3.9-12.8-5.8c-1.7,0-4.4,0.4-4.4,2.5c0,3.3,3.6,6,8.8,8.2c-10.6,7.3-14.7,16.1-19.1,28.1l-4.9-1.6
		c5,2.5,7.7,7.6,6.5,13l2.3-6.9c10.1,3.4,19.7,6,30.2,6.9c30.3,2.5,59-14,87.9-19.3c14.6-2.8,28.8-1.4,43.4-0.1
		c-20.2-6.8-50.4-6.4-72.1-0.4l-50,14c-11,2.8-21.2,2.3-31.7-1.2c-1.6-0.5-6-2.4-6.7-2.7l-1.1-2.2c0.1-0.4,0.8-3.7,1.1-4.6
		c3.6-10.9,9.4-17.3,16.9-21.9c10.7,3.7,25.7,5.4,30.7,5.4c16,0,27.8-4.8,38.4-17.1c5.3,3,10.1,3.8,18.5,3.8
		c9.5,0,18.1-2.3,26.1-8.7c0.6-0.8,6.1-6.6,6.8-6.6h1.7c1.3,1,7.4,5.5,8.6,6.6c1.3-5.1-7.9-6.8-6.9-12c11.9-1.8,23.5-6.2,33.3-12.6
		c11.5-7.4,25.7-21.9,29.4-35.7c4.3-15.8,7.9-31.9-0.2-46.2c-10.8-16.8-16.5-26.7-32.2-33.8c-15.9-7-31.9-5.1-46.4,4.2
		c-10.7,6.9-20.2,18.8-20.4,32.4c-0.2,2.7,0.9,10.8,1.3,11.8c0,0,0,0.1,0.1,0.2c-7.4-3.8-14.9-7.1-23.4-8c-0.2,0-8.2-0.2-11.2-0.2
		c-19.8,0-40.1,5.1-53.9,20.9c-0.8,0.6-4.4,6.1-5.1,6.8c-0.4,0.2-1.7,1.7-1.7,1.7c-14.1,4.8-29.9,2.1-44.5,5.1
		c-37.1,7.6-64.9,18.8-96.1,41.1c-4.6,2.7-22.1,18.9-32.5,30.7c45.3-42.2,94.6-65.2,157-65.2H848z M924.5,308.1
		c-4.2,0-6.3-6.3-6.3-9.7c0-2.3,1.1-7.4,4.6-7.4c4.2,0,4.4,3.6,4.4,10.7C927.2,304.3,926.8,308.1,924.5,308.1z M965.7,173.8
		c23.5-15.1,51-6.5,65.4,15.9c7.6,11.9,12.1,24.3,9.7,38.7c-4,23.5-15.2,41.2-35.4,54.2c-8.5,5.4-16.4,8.7-24.3,10.3
		c2.3-6.8,4.1-9.5,4.1-20.1c0-13.3-5.5-24.2-13.3-33.8c0,0,0,0,0.1,0l-0.1,0c-4.2-5.2-9.1-10.1-14.1-14.8c-0.8-0.2-4.2-2.7-5.1-3.4
		c-1.6-0.8-3.1-1.7-4.7-2.5c-1.2-3-2-5.5-1.9-6.5C944.3,196.6,953.5,181.6,965.7,173.8z"/>
	<path class="st0" d="M1002.1,327c-0.4,0-0.6,0.4-0.6,1c0,0.4,0.2,0.8,0.6,0.8c0.6,0,1-0.6,1-0.8c0-0.4-0.4-0.8-0.8-1H1002.1z"/>
	<path class="st0" d="M315.5,455.7c-0.3,0.1-0.4,0.5-0.4,0.7c0.1,0.3,0.5,0.4,0.7,0.4c0.3-0.1,0.2-0.4,0.1-0.6
		C315.8,455.9,315.7,455.6,315.5,455.7z"/>
	<path class="st0" d="M407,416.7l-9.6,3.3c-0.4-1.1-3.4-3.9-4.1-4c-9.7-5.6-14.7-8.7-25.9-4.8c6.9,0.9,21.6,0.1,24.5,8.6
		c0.5,1.3,0.6,3.4,0.6,3.4l-12,4.1c2,9.2,11.5,0.5,13.4,5.9c1.1,3.2-1.1,9-1.9,10.2c5.2-0.6,5.4-8.7,7.1-10.5
		c0.9-0.9,10.3-5.6,11.2-6.5c14.6-8.9,34.1-24.3,39.7-40.9l-2.4,0.8C434.3,398.6,424.9,410.5,407,416.7z"/>
	<path class="st0" d="M281.5,439.6c-0.3,0.1-0.9,0.9-0.6,1.7c0.2,0.5,0.8,0.6,1.3,0.4c0.8-0.3,1.2-0.7,1.1-1.3l-0.1-0.3
		C282.7,439.5,282,439.4,281.5,439.6z"/>
	<path class="st0" d="M442.5,371.3c-0.3,0.1-0.4,0.5-0.4,0.7c0.1,0.3,0.5,0.4,0.7,0.4c0.3-0.1,0.2-0.4,0.1-0.6
		C442.9,371.5,442.8,371.2,442.5,371.3z"/>
	<path class="st0" d="M277.6,447.2c-0.3,0.1-0.4,0.5-0.4,0.5c0.1,0.3,0.5,0.4,0.7,0.3c0.3-0.1,0.2-0.4,0.1-0.6
		C277.9,447.4,277.8,447.1,277.6,447.2z"/>
	<path class="st0" d="M439.4,374.4c-0.3,0.1-0.9,0.9-0.6,1.7c0.2,0.5,0.8,0.6,1.3,0.4c0.8-0.3,1.2-0.7,1.1-1.3l-0.1-0.3
		C440.6,374.3,440,374.3,439.4,374.4z"/>
	<path class="st0" d="M330.9,446.8c-1.1-3.2-2.4-11.4-3.1-13.3c8-2.8,17.9,2.5,27-0.6c-2.1-6.1-3.5-5.7-8.9-5.9l-19.4-1.7
		c4.2-13.1,12.5-18.4,25.1-22.7c20.6-7.1,42.3-0.5,62.9-7.6c5.3-1.8,21.5-9.5,22.6-15.9c-6,1.8-11.5,6.6-17.1,8.6
		c-21.9,7.5-46.4,2.5-68,10c-9.6,3.3-17.5,8.1-24,16.3c-0.9,0.9-6.2,9.9-7.1,10.5l-1.1,0.4c-7.5,2.6-16.1,2.8-23.8,5.5
		c-4.8,1.7-7.2,2.5-11.2,6.5c7.5-2.6,16.9-4.5,24.3-5.3c-9.1,7.2-17.7,15.7-29.1,19.8c-1.1,0.4-2.2,0.7-3.3,1.1
		c-0.2-0.7-0.4-1.2-0.5-1.6c-0.3,0.7-0.5,1.3-0.6,2c-8.2,2.7-16.5,5.4-24.9,7.7c-0.8-0.2-1.6,0-2.6,0.7c-4.3,1.1-8.7,2.2-13,3.1
		c0,0,0,0,0,0c0.7-0.7,2.5-2.5,1.2-3.8c-1.5-1.5-4.2-1.3-5.3-0.2c-1.2,1.3-1.9,3.1-0.5,4.4c0.1,0.1,0.3,0.2,0.4,0.3
		c-18.9,3.4-38.2,3.5-57.6-3.4l-0.5-1.6c0.2-1.3,2.3-5.6,3.2-6.5c-3.6,0.6-5.1,4.1-9.4,4.9l-12.5-5l0.6,1.8l11.4,7
		c-13.3,14.9-35.7,28.2-50.7,33.2l-6.1,2.1c-37.7,12.6-89,9.9-103.7-34.1c-6.2-18.4-1.6-31.2,7.7-47.7c10-18,42.1-32.4,60.4-38.5
		c33.9-11.4,67.6-9.2,102.8-3.5l4.3-3.3c-1-1.9-2.8-4.9-5.4-5.4c-32.9-6.5-68.4-1-99.6,9.4c-26.5,8.9-31.1,11.4-44.1,20.4
		c-14.7,10.1-22.1,20.4-29.3,37.1c-6.4,14.6,2.3,33.8,5.5,43.3c0.1,0.4,3.1,4.4,3.8,6c16.2,23.1,44.7,29.8,71.2,28.7
		c13.1-0.6,13.5-0.5,27.2-5.1c27.1-9.1,40.2-21.5,60.1-42.2c24.1,9.8,53.8,14.3,79.7,7.4c0.7,0.1,1.3-0.1,1.9-0.5
		c1.1-0.3,2.3-0.7,3.4-1c7.5-2.5,14.5-5.7,21.3-9.4c0.1,0.3,0.2,0.6,0.3,0.9c4.1,11.8,14.6,15.6,25.1,12c3.7-1.3,16.3-5.6,12.3-12.9
		c-1,1.5-6.8,7.1-8,8.1c-2.2,0.5-12.4,7.5-24.3-1.8c-1-1.1-2.2-4.3-3.3-7.6c12.4-7.2,23.6-16.3,33.6-26.8c4.9-0.3,8.4,0,8.8,1.1
		c8.2,10.7,3.6,20.9,28.5,28.2c9.1,3.8,21.4-2,29.5-4.8c4.8-1.7,10.8-4.3,11.4-9.3c-6.8,2-12,6.8-18.4,9
		C360.8,459.5,335.4,459.6,330.9,446.8z"/>
	<path class="st0" d="M453.2,379c2.4-0.8,3.6-0.9,4-4.1C454.6,375.8,453.8,376.4,453.2,379z"/>
	<path class="st0" d="M458.6,371.1c-0.3,0.1-0.4,0.5-0.3,0.7c0.1,0.3,0.5,0.4,0.7,0.4c0.3-0.1,0.2-0.4,0.1-0.6
		C459,371.3,458.9,371,458.6,371.1z"/>
	<path class="st0" d="M369.1,435.1c3.4-1.5,3.1-5.8,2.1-8.8l-9.4,3.2C362.8,432.5,365.4,436.4,369.1,435.1z"/>
	<path class="st0" d="M451.6,381.9c-0.3,0.1-0.4,0.5-0.4,0.5c0.1,0.3,0.5,0.4,0.7,0.4c0.3-0.1,0.2-0.4,0.1-0.6
		C451.9,382.1,451.8,381.8,451.6,381.9z"/>
	<path class="st0" d="M279.1,444c-0.3,0.1-0.4,0.5-0.4,0.5c0.1,0.3,0.5,0.4,0.7,0.4c0.3-0.1,0.2-0.4,0.1-0.6
		C279.5,444.2,279.4,443.9,279.1,444z"/>
	<path class="st0" d="M717,381.9c-0.3-0.1-0.4,0.2-0.4,0.2c-0.1,0.3-0.2,0.5,0.1,0.6c0.3,0.1,0.6-0.1,0.7-0.4
		C717.4,382.4,717.2,382,717,381.9z"/>
	<path class="st0" d="M711.3,374.9c0.4,3.1,1.6,3.2,4,4.1C714.7,376.4,714,375.8,711.3,374.9z"/>
	<path class="st0" d="M729.1,374.4c-0.5-0.2-1.2-0.1-1.7,0.6l-0.1,0.3c-0.2,0.5,0.3,1,1.1,1.3c0.5,0.2,1.2,0.1,1.3-0.4
		C730,375.3,729.4,374.5,729.1,374.4z"/>
	<path class="st0" d="M885.3,440.2l-0.1,0.3c-0.2,0.5,0.3,1,1.1,1.3c0.5,0.2,1.2,0.1,1.3-0.4c0.3-0.8-0.3-1.6-0.6-1.7
		C886.5,439.4,885.9,439.5,885.3,440.2z"/>
	<path class="st0" d="M725.6,371.7c-0.1,0.3-0.2,0.5,0.1,0.6c0.3,0.1,0.6-0.1,0.7-0.3c0.1-0.3-0.1-0.6-0.3-0.7
		C725.8,371.2,725.7,371.5,725.6,371.7z"/>
	<path class="st0" d="M709.9,371.1c-0.3-0.1-0.4,0.2-0.5,0.4c-0.1,0.3-0.2,0.5,0.1,0.6c0.3,0.1,0.6-0.1,0.7-0.4
		C710.4,371.6,710.2,371.2,709.9,371.1z"/>
	<path class="st0" d="M788.1,427.3l-12-4.1c0,0,0.1-2.1,0.6-3.4c2.9-8.6,17.6-7.7,24.5-8.6c-11.2-3.9-16.2-0.8-25.9,4.8
		c-0.6,0.1-3.7,2.9-4.1,4l-9.6-3.3c-17.9-6.2-27.3-18.1-40.7-30.4l-2.4-0.8c5.6,16.6,25.2,32,39.7,40.9c0.9,0.9,10.3,5.6,11.2,6.5
		c1.8,1.8,2,9.9,7.1,10.5c-0.8-1.2-3-7-1.9-10.2C776.5,427.8,786.1,436.5,788.1,427.3z"/>
	<path class="st0" d="M853.1,455.7c-0.3-0.1-0.4,0.2-0.5,0.4c-0.1,0.3-0.2,0.5,0.1,0.6c0.3,0.1,0.6-0.1,0.7-0.4
		C853.5,456.1,853.3,455.8,853.1,455.7z"/>
	<path class="st0" d="M889,444.2c-0.1,0.3-0.2,0.5,0.1,0.6c0.3,0.1,0.6-0.1,0.7-0.3c0,0-0.2-0.4-0.4-0.5
		C889.1,443.9,889,444.2,889,444.2z"/>
	<path class="st0" d="M890.6,447.4c-0.1,0.3-0.2,0.5,0.1,0.6c0.3,0.1,0.6-0.1,0.7-0.3c0,0-0.2-0.4-0.4-0.5
		C890.7,447.1,890.6,447.4,890.6,447.4z"/>
	<path class="st0" d="M799.4,435.1c3.7,1.3,6.3-2.6,7.3-5.6l-9.4-3.2C796.4,429.3,796.1,433.7,799.4,435.1z"/>
	<path class="st0" d="M936.9,288.9c-0.7-1.2-1.3-2.4-3.4-2l0.3,0.5C934.5,288.5,935.3,289,936.9,288.9z"/>
	<path class="st0" d="M1007.2,205.7c-0.2-5.7,0.3-6.5-2.8-10.8c2.4,15.2-0.5,29.6-14,38.3c-4.6,3-9.2,3.8-13.6,6.7
		c6.2-0.1,10.1-2.3,15.2-5.6C1002.3,227.7,1007.8,217.9,1007.2,205.7z"/>
	<path class="st0" d="M974.6,239.7c0.2-0.1,0.1-0.3,0.1-0.3c-0.1-0.2-0.2-0.3-0.4-0.2c-0.2,0.1-0.2,0.4-0.1,0.5
		C974.2,239.8,974.4,239.8,974.6,239.7z"/>
	<path class="st0" d="M914.9,245c1.9,3,3.4,3.2,6.4,1.2c2.6-1.7,2.9-3,1-6c-1.8-2.8-3.2-3.1-5.8-1.4
		C913.6,240.8,913.1,242.2,914.9,245z"/>
	<path class="st0" d="M958.8,234.7c0.7,1.2,1.6,2.5,3.4,2c-0.8-1.6-2.2-2.3-4.3-3.5L958.8,234.7z"/>
	<path class="st0" d="M920.6,227.9c1.5-1,2.8-2.2,1.4-4.4c-1.1-1.6-3-1.4-4.4-0.4c-1.3,0.8-2,3.4-0.8,5.2
		C917.7,229.8,919.8,228.4,920.6,227.9z"/>
	<path class="st0" d="M922.8,519.3c-0.1-0.1-0.4-0.1-0.6,0c0,0,0,0.3,0.1,0.4c0.1,0.1,0.3,0,0.3,0
		C922.8,519.6,923,519.4,922.8,519.3z"/>
	<path class="st0" d="M950.6,482.4c-2.6,0.4-10.4,3-11.3,3.6c-0.3,0.3-5.3,4.6-7.1,6.4c-1.3,1.2-5.8,6.2-6.7,7.1
		c6-5.9,16.2-13.1,18.9-13.5c14.3-4.7,30.9,1.4,41,11.7c19.5,20.1,16.5,48.7-2.5,67.3c-10.1,9.8-21.4,16.8-35.9,17.3
		c-23.8,0.8-43.4-6.7-60.2-23.9c-18.7-19.2-21.5-37.8-19.9-63.4l-0.4,0.4c-1.3,1.2-1.7,2.7-2.1,4.5c-0.2,3.2-0.5,15.2-0.2,17.4
		c1.6,18.2,10.6,36.1,23.2,49c9.6,9.8,26.6,20.8,40.8,21.7c16.3,1,32.8,1.4,45.3-9.4c14.3-13.9,22.8-21.4,26.7-38.3
		c3.7-17-1.4-32.3-13.4-44.6C977.5,486.8,963.9,479.8,950.6,482.4z"/>
	<path class="st0" d="M868,488.8l-0.4,0.4c-1,1-1.3,1.8-0.9,3.3C867.7,491.6,868.8,490.7,868,488.8z"/>
	<path class="st0" d="M922.7,516.9l0.1-7.5l-0.6,0.5C920.3,511.9,920.5,515.2,922.7,516.9z"/>
	<path class="st0" d="M962.2,544.8c5.6-1.3,6.4-1,10-4.9c-14.5,5.3-29.1,5.4-40.3-6.1c-3.8-3.9-5.6-8.2-9.3-12
		c1.3,6.1,4.3,9.5,8.5,13.8C939.7,544.4,950.4,547.9,962.2,544.8z"/>
	<path class="st0" d="M922.8,507c1.4-1.1,1.8-2.6,2.6-5l-1.3,1.2C923.2,504.2,922,505.3,922.8,507z"/>
	<path class="st0" d="M234.2,503.2l-1.3-1.2c0.7,2.3,1.2,3.9,2.6,5C236.3,505.3,235.2,504.2,234.2,503.2z"/>
	<path class="st0" d="M235.7,519.7c0,0,0.1,0.1,0.3,0c0.1-0.1,0.1-0.4,0.1-0.4c-0.1-0.1-0.4-0.1-0.6,0
		C235.4,519.4,235.5,519.6,235.7,519.7z"/>
	<path class="st0" d="M186.1,540c3.6,3.8,4.5,3.5,10,4.9c11.8,3,22.6-0.4,31-9.1c4.2-4.3,7.2-7.7,8.5-13.8c-3.7,3.8-5.4,8.1-9.3,12
		C215.2,545.4,200.6,545.3,186.1,540z"/>
	<path class="st0" d="M236.1,510l-0.6-0.5l0.1,7.5C237.8,515.2,238.1,511.9,236.1,510z"/>
	<path class="st0" d="M292.1,495.4l-0.4-0.4c1.6,25.6-1.2,44.2-19.9,63.4c-16.8,17.2-36.4,24.7-60.2,23.9
		c-14.5-0.5-25.8-7.4-35.9-17.3c-19.1-18.6-22.1-47.2-2.5-67.3c10.1-10.4,26.6-16.4,41-11.7c2.6,0.4,12.8,7.6,18.9,13.5
		c-1-1-5.5-5.9-6.7-7.1c-1.8-1.8-6.9-6.1-7.1-6.4c-0.8-0.5-8.6-3.2-11.3-3.6c-13.3-2.6-26.9,4.4-35.8,13.5
		c-12,12.3-17.1,27.6-13.4,44.6c3.8,16.8,12.4,24.3,26.7,38.3c12.5,10.8,28.9,10.4,45.3,9.4c14.2-0.9,31.3-11.9,40.8-21.7
		c12.6-12.9,21.6-30.9,23.2-49c0.2-2.2,0-14.3-0.2-17.4C293.8,498.2,293.4,496.6,292.1,495.4z"/>
	<path class="st0" d="M290.8,489.2l-0.4-0.4c-0.8,1.9,0.3,2.8,1.3,3.7C292.1,491,291.8,490.2,290.8,489.2z"/>
	<path class="st0" d="M200.1,239.5c0,0-0.1,0.2,0.1,0.3c0.2,0.1,0.4,0,0.4,0c0.1-0.2,0-0.4-0.1-0.5
		C200.4,239.1,200.3,239.3,200.1,239.5z"/>
	<path class="st0" d="M212.6,236.7c1.8,0.5,2.6-0.9,3.4-2l1-1.5C214.8,234.4,213.4,235.2,212.6,236.7z"/>
	<path class="st0" d="M209.7,237.9l0.4-0.7l-7.3,1.6C204.9,240.7,208.3,240.2,209.7,237.9z"/>
	<path class="st0" d="M241,287.4l0.3-0.5c-2.1-0.4-2.6,0.9-3.4,2C239.5,289,240.3,288.5,241,287.4z"/>
	<path class="st0" d="M258.2,238.9c-2.6-1.7-4-1.4-5.8,1.4c-1.9,3-1.6,4.3,1,6c3,1.9,4.5,1.7,6.4-1.2
		C261.7,242.2,261.2,240.8,258.2,238.9z"/>
	<path class="st0" d="M254.2,227.9c0.8,0.5,3,1.9,3.9,0.4c1.2-1.8,0.5-4.4-0.8-5.2c-1.5-1-3.4-1.2-4.4,0.4
		C251.4,225.6,252.7,226.9,254.2,227.9z"/>
	<path class="st0" d="M755.1,139.8c-1.9-1.7-3-0.5-4.4,0.2C752.3,141.1,753.4,140.7,755.1,139.8z"/>
	<path class="st0" d="M751.6,98.8c3-1.7,3.6-3.3,1.7-6.7c-1.8-3.2-3.5-3.5-6.5-1.8c-3.4,1.9-3.8,3.4-2,6.6
		C746.7,100.3,748.2,100.8,751.6,98.8z"/>
	<path class="st0" d="M683.6,132.4c5.7-3.7,32.6-20.5,38.3-23.7c1.5-1.3,3-2.7,2-4.4c-3.4-6.1-13.3,1.7-20.1,5.5
		c-28.8,16.2-50.4,40-66.3,68.6c-0.3,1.2-4.5,4.8-3.2,7.3c0.2,0.4,0.9,0.7,0.9,0.7C646.9,165.7,663.1,145.7,683.6,132.4z"/>
	<path class="st0" d="M968.5,119.2c-2.3-1.4-5.2-2.1-7-0.5C963.6,120,966,121.1,968.5,119.2z"/>
	<path class="st0" d="M746.2,140l1.7-1c-15.4-6.1-32.4-2.6-46.4,5.3c-11.2,6.3-17.9,12-26,21.8c-1.7,1.9-5,7.1-4.9,7.2l1,1.7
		c9.5-11.1,15.9-15.6,28.8-22.9l6.1-3.4c7-3.9,13.9-7.3,22.2-8L746.2,140z"/>
	<path class="st0" d="M981.2,120.1c-0.4,0.2-0.7,0.6-0.4,1c0.3,0.6,1.1,0.6,1.3,0.5c0.4-0.2,0.7-0.6,0.5-1.3l-0.1-0.2
		C982.2,119.8,981.7,119.8,981.2,120.1z"/>
	<path class="st0" d="M843.9,191.5c8.4-4.7,15.3-8.8,20.9-16.5c2.3-3,7.4-10.9,7.4-10.9l-1-1.7c-1,1.3-6.8,7.8-8.3,9.2
		c-1.6,1.1-5.5,5.3-5.9,5.5c-0.8,0.4-12.6,7.3-16.6,9.5c-3.8,2.1-13.8,7.5-14.2,7.7c-2.7,1-15.6,3.8-18.2,3.5l1,1.7
		c0.5,0.9,21.9-1,25.3-2.9C834.7,196.4,841.6,192.8,843.9,191.5z"/>
	<path class="st0" d="M870.5,125c0.2-0.1,0.1-0.3,0-0.5c-0.1-0.2-0.2-0.4-0.4-0.3c-0.2,0.1-0.3,0.4-0.2,0.6
		C870,125,870.3,125.1,870.5,125z"/>
	<path class="st0" d="M978.2,120.5c-2.3-1.4-5.2-2.1-7-0.5C973.3,121.3,976.1,122.2,978.2,120.5z"/>
	<path class="st0" d="M736,97.6c-1-1.7-2.4-2.1-4.1-1.2c-1.7,1-2.1,3.4-2.3,5.8l5.3,1.5C736.1,101.8,736.9,99.3,736,97.6z"/>
	<path class="st0" d="M766.2,95.1c1.9-1.1,2.8-3.8,1.9-5.5s-2.7-3-4.8-1.8c-2.5,1.4-1.7,3.2-0.7,4.9
		C763.1,93.6,764.5,96.1,766.2,95.1z"/>
	<path class="st0" d="M960.2,76.5c9.2-26.3,21.5-41.2,45.8-54.8c26-14.6,58.5-20.6,75.3,9.4c12.5,22.4-2.8,44-18.5,60
		c-1.5,1.3-5.7,5.4-5.9,5.5l-30.9,17.3c-11.8,6.1-29.1,4.1-40.9,7.2l2.7,0.8c19.4-0.1,38.4-3.6,55.5-13.1
		c22.4-12.5,39.4-31.1,44.9-56.5c1.8-8-0.3-16.5-4.3-23.8c-9.8-17.5-31.9-25.8-51.5-23.8c-3.6,0.3-14.4,1.4-18.2,3.5
		c-4.2,2.3-16.8,9.2-22.9,12.6c-4.2,2.3-7.5,4.9-10.5,8.4c-5,5.8-14.1,22.1-15.5,24.4c-1.9,6-6.2,20.9-6,21.3L960.2,76.5z"/>
	<path class="st0" d="M1004.8,56c0.5,0,9.3-7,13.2-8.9c2.8-1.6,6.2-2.2,9.1-3.8c4-2.2,8.2-4.1,13-4.8l17.5-0.8l1.7-1
		c-6.7-2.7-25.7-3.6-31.6-0.3c-5.5,3.1-38.3,18-41.3,38.8l1.7-1C993.3,68.7,998.2,60.2,1004.8,56z"/>
	<path class="st0" d="M700.6,82.5c54.8-30.7,175.2-72.2,214.6,5.7c1.9,3.4,4.2,15.1,5.2,17.3l-1.7,1c-39.6-12-81.4-23.7-123.2-23.2
		l-13.1,0.6c0,0-1.7,1-2.5,1.4c-1.7,1-6.1,3.4-4.8,5.7c0.7,1.3,3.2,3.5,4.3,3.6c49.8-7.2,91.7,1.7,139.5,16.3
		c2.4,4.4,2.5,10.3,1.6,14.8c-9.5,42.2-28.2,63.6-64.6,84.1c-17.5,9.8-21.8,11-33.4,13.7l-3.4,1.9c0.4,0.3,3.6,0.2,4.4-0.2
		c12.7-2.6,24.7-7.1,36.3-13.6c36.6-20.5,62.7-56.8,64.6-99.2l32.8,6.5l1.7-1L924,108c-0.7-2.6-4.2-14.6-5.2-17.3l-4-7.2
		c-34.8-62.1-121.1-50.6-176.9-31c-3,1.4-12.3,4.7-12.9,5c-1.1,0.6-15.7,8.5-21,11.5c-45.9,25.7-82.7,66-107.6,112.4
		c-7,12.9-14.7,26.7-17.4,41.1c0.5-0.5,7.5-13.4,10.4-21.5c1.2-1.9,5.6-10.9,6.4-12.6C621.5,142.5,654.5,108.4,700.6,82.5z"/>
	<path class="st0" d="M762.5,205.2c3.6,6.5,8.2,13.3,15.8,16.1c13.3,5,29.7,8.1,38,3.4c-13.4-0.2-21.8-0.7-34.6-5.3
		c-9.3-3.3-12.2-9.8-17.2-18.8c-2.7-4.7-5.8-10.7-4.7-16.3c5.4-25.5,17-38.7,39-51c22.2-12.4,43.7-15,68.8-9.4l-1-1.7
		c-0.2-0.4-15-4.6-21.3-6c-16.6-3.9-35.9-0.1-50.4,8C767.3,139.7,745.5,174.8,762.5,205.2z"/>
	<path class="st0" d="M176.3,115.8l-0.1,0.2c-0.1,0.7,0.1,1.1,0.5,1.3c0.2,0.1,1,0,1.3-0.5c0.2-0.4-0.1-0.8-0.4-1
		C177,115.4,176.5,115.4,176.3,115.8z"/>
	<path class="st0" d="M408,135.6c-1.3-0.7-2.4-1.9-4.4-0.2C405.4,136.4,406.4,136.7,408,135.6z"/>
	<path class="st0" d="M99.4,32.3l1.7,1l17.5,0.8c4.8,0.7,9,2.6,13,4.8c2.8,1.6,6.2,2.2,9.1,3.8c3.9,1.9,12.7,8.9,13.2,8.9
		c6.6,4.2,11.6,12.7,16.7,18.3l1.7,1c-3-20.9-35.8-35.8-41.3-38.8C125.1,28.8,106.2,29.6,99.4,32.3z"/>
	<path class="st0" d="M197.3,114.3c-1.9-1.5-4.7-0.9-7,0.5C192.7,116.8,195.1,115.6,197.3,114.3z"/>
	<path class="st0" d="M411.9,86c-3-1.7-4.7-1.4-6.5,1.8c-1.9,3.4-1.3,5,1.7,6.7c3.4,1.9,4.9,1.5,6.8-1.9
		C415.8,89.4,415.4,87.9,411.9,86z"/>
	<path class="st0" d="M562.4,177c-24.9-46.4-61.7-86.6-107.6-112.4c-5.3-3-19.8-10.9-21-11.5c-0.6-0.3-10-3.6-12.9-5
		c-55.9-19.6-142.2-31-176.9,31l-4,7.2c-1,2.7-4.5,14.7-5.2,17.3l-34.7,10l1.7,1l32.8-6.5c1.9,42.5,28,78.7,64.6,99.2
		c11.6,6.5,23.5,10.9,36.3,13.6c0.8,0.4,4,0.5,4.4,0.2l-3.4-1.9c-11.7-2.8-16-4-33.4-13.7c-36.4-20.4-55.1-41.8-64.6-84.1
		c-1-4.5-0.9-10.5,1.6-14.8c47.8-14.6,89.7-23.5,139.5-16.3c1.1-0.1,3.5-2.3,4.3-3.6c1.3-2.3-3.1-4.7-4.8-5.7
		c-0.8-0.4-2.5-1.4-2.5-1.4l-13.1-0.6c-41.9-0.5-83.6,11.3-123.2,23.2l-1.7-1c1-2.2,3.3-13.9,5.2-17.3C283,6,403.3,47.5,458.2,78.2
		c46.1,25.8,79.1,60,104.8,105.8c0.8,1.7,5.2,10.7,6.4,12.6c2.9,8.1,9.9,21,10.4,21.5C577.1,203.7,569.4,189.9,562.4,177z"/>
	<path class="st0" d="M115.4,104.4c17.1,9.6,36.1,13,55.5,13.1l2.7-0.8c-11.7-3.1-29.1-1.1-40.9-7.2l-30.9-17.3
		c-0.2-0.1-4.4-4.2-5.9-5.5c-15.7-16-31.1-37.6-18.5-60c16.8-30,49.3-24,75.3-9.4c24.3,13.6,36.6,28.5,45.8,54.8l1-1.7
		c0.2-0.4-4.2-15.3-6-21.3C192,46.8,183,30.5,178,24.7c-3.1-3.5-6.3-6-10.5-8.4c-6.1-3.4-18.7-10.2-22.9-12.6
		c-3.8-2.1-14.7-3.2-18.2-3.5c-19.6-2-41.7,6.3-51.5,23.8c-4,7.2-6.1,15.8-4.3,23.8C76,73.3,93,91.8,115.4,104.4z"/>
	<path class="st0" d="M187.6,115.6c-1.9-1.5-4.7-0.9-7,0.5C182.7,117.8,185.4,116.9,187.6,115.6z"/>
	<path class="st0" d="M426.9,92.1c-1.7-1-3.2-0.5-4.1,1.2c-1,1.7-0.1,4.2,1.1,6.1l5.3-1.5C429,95.5,428.6,93.1,426.9,92.1z"/>
	<path class="st0" d="M412.5,135.7l17.5,0.8c8.3,0.7,15.2,4,22.2,8l6.1,3.4c12.9,7.2,19.3,11.8,28.8,22.9l1-1.7
		c0.1-0.2-3.3-5.3-4.9-7.2c-8-9.7-14.8-15.5-26-21.8c-14-7.9-31-11.4-46.4-5.3L412.5,135.7z"/>
	<path class="st0" d="M380.5,216.9c7.5-2.8,12.1-9.7,15.8-16.1c17-30.4-4.7-65.5-32.4-81c-14.4-8.1-33.7-11.9-50.4-8
		c-6.3,1.5-21.1,5.6-21.3,6l-1,1.7c25.1-5.6,46.6-3.1,68.8,9.4c22,12.3,33.6,25.5,39,51c1.1,5.6-2,11.6-4.7,16.3
		c-5,8.9-7.9,15.5-17.2,18.8c-12.8,4.6-21.3,5-34.6,5.3C350.8,225,367.2,221.9,380.5,216.9z"/>
	<path class="st0" d="M396.1,88.3c1-1.7,1.7-3.5-0.7-4.9c-2.1-1.2-3.8,0.1-4.8,1.8c-1,1.7,0,4.5,1.9,5.5
		C394.2,91.7,395.6,89.3,396.1,88.3z"/>
	<path class="st0" d="M286.5,159.8c0,0,5.1,7.8,7.4,10.9c5.7,7.7,12.6,11.8,20.9,16.5c2.3,1.3,9.2,4.9,9.6,5.1
		c3.4,1.9,24.7,3.9,25.3,2.9l1-1.7c-2.6,0.3-15.6-2.5-18.2-3.5c-0.4-0.2-10.4-5.6-14.2-7.7c-4-2.2-15.8-9.1-16.6-9.5
		c-0.4-0.2-4.3-4.4-5.9-5.5c-1.5-1.3-7.3-7.8-8.3-9.2L286.5,159.8z"/>
	<path class="st0" d="M288.9,120.5c0.1-0.2,0-0.5-0.2-0.6c-0.2-0.1-0.3,0.1-0.4,0.3c-0.1,0.2-0.2,0.4,0,0.5
		C288.5,120.8,288.8,120.7,288.9,120.5z"/>
	<path class="st0" d="M521.2,174.1c-15.9-28.6-37.5-52.4-66.3-68.6c-6.8-3.8-16.7-11.6-20.1-5.5c-1,1.7,0.5,3,2,4.4
		c5.7,3.2,32.7,20,38.3,23.7c20.5,13.2,36.7,33.3,48.3,54c0,0,0.7-0.4,0.9-0.7C525.7,178.8,521.5,175.2,521.2,174.1z"/>
	<path class="st0" d="M969.8,373.9l-11.4-3.8c-1.4-0.5-8.4,7.6-8.9,9.3c1.3,0.4,9.1,2.1,10.5,2.1
		C961.9,382.1,967.2,377.1,969.8,373.9z"/>
	<path class="st0" d="M1064.6,474.5c14.4,4.8,42.4,6.5,55.3-3.4c8.1-6.3,8.9-9.1,12.6-20.3c1.3-4,1.8-6.4-0.1-11.7
		c-7.1-20-24.3-28-43.5-34.4c-20-6.7-41.8-11.2-63.2-8.5c-7.8,1-36.8,5-41.9,5.8c-34.4,5.6-68.8,16.7-102.9,5.3
		c-7.6-2.5-15.5-5.8-21.8-10.9c-1.4-1.1-11.1-10.1-12.4-11.4l-1.6-0.5c0.5,1,9,11.6,11.9,13c2,1.9,10.5,7.1,12.1,7.7
		c0.2,0.1,10.9,4,15,5.4c29.8,10,53.6,8.9,92.7,1.7c39.1-6.4,74.5-17,113.5-4c18.9,6.3,32.1,12.1,39.9,31.8
		c1.9,5.1,0.3,11.1-1.2,15.5c-6.1,18.2-26.8,20.7-43.3,20.2c-7.8-0.8-13.5-2.7-33-9.2c-6.1-2.1-15-10.4-22.7-13
		C1037.4,462.8,1053.8,470.9,1064.6,474.5z"/>
	<path class="st0" d="M1090.2,441.3l1.6,0.5c-0.7-3.4-9.7-11.9-13.5-13.6l-10.5-3.5c-11.4-3.8-23.4-5.6-33.9,1.3
		c12-2.2,21.1-2,32.9,2C1075.9,431.1,1082,435.8,1090.2,441.3z"/>
	<path class="st0" d="M1027.4,450.8c-0.2,0.7,0,1.2,0.4,1.3c0.4,0.1,0.8-0.1,1.2-0.6c0.1-0.4-0.1-0.8-0.7-1
		C1027.9,450.4,1027.5,450.4,1027.4,450.8z"/>
	<path class="st0" d="M1025.8,448.9c0,0,0.1,0.2,0.3,0.3l0.2-0.1c0.1-0.2-0.1-0.4-0.1-0.4C1026.1,448.6,1025.9,448.7,1025.8,448.9z"
		/>
	<path class="st0" d="M943.8,381.5c-0.1-0.8-1.6-3.7-2.2-4.3c-2-0.7-3.6,0-4.3,2.2c-0.5,1.6-0.7,3.4,1.4,4.1
		C940.4,384,942.4,382.8,943.8,381.5z"/>
	<path class="st0" d="M1165.6,432.2c-7.3-16.7-14.7-27-29.3-37.1c-13-9-17.6-11.5-44.1-20.4c-31.2-10.4-66.7-15.9-99.6-9.4
		c-2.6,0.5-4.4,3.5-5.4,5.4l4.3,3.3c35.2-5.7,68.9-7.9,102.8,3.5c18.2,6.1,50.3,20.5,60.4,38.5c9.3,16.6,13.9,29.3,7.7,47.7
		c-14.7,44-66,46.7-103.7,34.1l-6.1-2.1c-15-5-37.4-18.3-50.7-33.2l11.4-7l0.6-1.8l-12.5,5c-4.3-0.8-5.8-4.3-9.4-4.9
		c0.9,0.9,3.1,5.2,3.2,6.5l-0.5,1.6c-22.3,7.9-44.4,6.5-66,1.7c0.2-1.1-0.4-2.2-1.2-3.1c-1.1-1.1-3.7-1.3-5.3,0.2
		c-0.4,0.4-0.5,0.8-0.4,1.2c-9.6-2.5-19.2-5.5-28.6-8.7c-0.1-0.7-0.3-1.4-0.7-2.2c-0.1,0.4-0.3,1-0.6,1.8c-1.3-0.4-2.6-0.9-3.9-1.3
		c-11.4-4.1-20.1-12.6-29.2-19.9c7.4,0.7,17.2,2.7,25,5.3c-4-4.1-6.4-4.9-11.2-6.5c-7.8-2.7-16.3-2.9-23.8-5.5l-1.1-0.4
		c-1-0.6-6.3-9.6-7.1-10.5c-6.4-8.2-14.4-13-24-16.3c-21.7-7.5-46.1-2.4-68-10c-5.6-1.9-11.1-6.8-17.1-8.6
		c1.1,6.4,17.3,14,22.6,15.9c20.6,7.1,42.3,0.5,62.9,7.6c12.6,4.3,20.9,9.6,25.1,22.7l-19.4,1.7c-5.5,0.2-6.8-0.2-8.9,5.9
		c9.1,3.1,19-2.1,27,0.6c-0.6,1.9-2,10.1-3.1,13.3c-4.4,12.8-29.8,12.8-41,8.9c-6.4-2.2-11.6-7-18.4-9c0.7,5,6.6,7.7,11.4,9.3
		c8,2.8,20.4,8.5,29.5,4.8c24.9-7.3,20.4-17.5,28.5-28.2c0.4-1.1,3.6-1.4,8.2-1.2c10.2,10.6,21.6,19.9,34.2,27.1
		c-1.1,3.1-2.3,6.2-3.2,7.3c-11.9,9.4-22,2.3-24.3,1.8c-1.2-1-7-6.6-8-8.1c-4,7.3,8.6,11.6,12.3,12.9c10.4,3.6,21-0.2,25.1-12
		c0.1-0.2,0.1-0.4,0.2-0.6c3.7,2,7.5,3.9,11.4,5.5c-0.1,1.1,0.6,2.2,1.9,3.5c2.2,2.2,3.6,2.3,6.1-0.2c0.1-0.1,0.1-0.1,0.2-0.2
		c0.4,0.1,0.8,0.3,1.2,0.4c27.1,9.1,59.3,4.6,85-5.9c20,20.7,33.1,33.1,60.1,42.2c13.7,4.6,14.1,4.5,27.2,5.1
		c26.5,1.1,55.1-5.7,71.2-28.7c0.7-1.6,3.7-5.6,3.8-6C1163.4,466,1172,446.8,1165.6,432.2z"/>
	<path class="st0" d="M838.8,371.6c0.1-0.2,0.1-0.4-0.1-0.4c-0.2-0.1-0.4,0.1-0.5,0.2c-0.1,0.2,0.1,0.4,0.2,0.5
		C838.7,372,838.7,371.8,838.8,371.6z"/>
	<path class="st0" d="M851.3,424.8c-0.1,0.2-0.1,0.4,0.1,0.4c0.2,0.1,0.2-0.1,0.3-0.3c0.1-0.2,0.1-0.4-0.1-0.4
		C851.4,424.4,851.4,424.6,851.3,424.8z"/>
	<path class="st0" d="M828.3,348.3l0.1-0.2c0.1-0.4-0.5-0.8-1.3-1c-1.1-0.4-1.9-0.2-2,0.1c0.2,0.7,0.8,1.1,1.6,1.3
		C827.2,348.7,828,348.7,828.3,348.3z"/>
	<path class="st0" d="M816.5,362.2c-0.2,0.7,0.2,1.3,0.4,1.3c0.4,0.1,0.8-0.1,1.2-0.6l0.1-0.2c0.1-0.4-0.2-0.7-0.7-0.8
		C817,361.7,816.6,361.8,816.5,362.2z"/>
	<path class="st0" d="M843.1,382.1c27.2,9.1,57.8,10.3,86.1,5.3c0.1-0.4,1-1.9,1.2-2.4c0.9-2.7-0.1-4.5-3-5.4
		c-2.2-0.7-11.3,2.5-18.2,2.9c-19.2,3.4-40.3,4.6-59.2-1.8c-3.4-1.1-4.5-1.5-7.6-4.3c-0.4-0.1-0.7-2-1.1-2.2
		c-0.4-0.1-3.4,0.7-3.8,0.5c-7.2-1.4-12-7.8-18.4-9.8C824.9,372.4,835.8,378.1,843.1,382.1z"/>
	<path class="st0" d="M813.8,359.4c-0.2,0.7,0.2,1.3,0.4,1.3c0.4,0.1,0.8-0.1,1.2-0.6l0.1-0.2c0.1-0.4-0.2-0.7-0.7-0.8
		C814.3,359,813.9,359.1,813.8,359.4z"/>
	<path class="st0" d="M837,365.6l-0.2,0.7c-0.4,1.3-0.3,2.1,0.8,3.1C838.1,367.8,838.3,367.1,837,365.6z"/>
	<path class="st0" d="M982.7,373.4c0.6-1.8-0.9-2.7-2.5-3.3c-0.9-0.3-3.2-1.1-3.8,0.5c-0.7,2.2,0.5,3.8,2.2,4.3
		C980.1,375.6,981.9,375.8,982.7,373.4z"/>
	<path class="st0" d="M990.6,451.5c0,0-0.1,0.2,0.1,0.2c0.2,0.1,0.2-0.1,0.2-0.1c0.1-0.2,0.1-0.4-0.1-0.4
		C990.8,451.2,990.7,451.4,990.6,451.5z"/>
	<path class="st0" d="M988.1,448.9c0,0.6,0.3,0.9,0.7,1c0.2,0.1,0.6,0,1-0.5l0.1-0.2c0.1-0.4-0.2-0.7-0.5-0.8
		C988.7,448.3,988.3,448.3,988.1,448.9z"/>
	<path class="st0" d="M809.2,353.7c-0.4-0.1-0.8-0.1-0.9,0.3c-0.2,0.7,0.2,1.3,0.4,1.3c0.4,0.1,0.8-0.1,1.2-0.6l0.1-0.2
		C810.1,354.2,809.8,353.9,809.2,353.7z"/>
	<path class="st0" d="M811.1,356.7c-0.2,0.7,0.2,1.3,0.4,1.3c0.4,0.1,0.8-0.1,1.2-0.6l0.1-0.2c0.1-0.4-0.2-0.7-0.7-0.8
		C811.6,356.3,811.2,356.4,811.1,356.7z"/>
	<path class="st0" d="M675.3,189.9v0.8c0,0.8,3,7.2,5.1,9.5C680.4,195.6,678.3,192.8,675.3,189.9z"/>
	<path class="st0" d="M695,222.5c4.9,0,8,1.9,12.4,1.7c-2.3-3-5.7-3.4-9.1-3.4c-6.3,0-12,1.7-18.5,1.7c0-5.1,1.5-9.5,1.5-14.7v-5.9
		c-1,11.6-4.4,18.5-10.1,29.1C678.4,227,686.4,222.5,695,222.5z"/>
	<path class="st0" d="M709.8,226.8c0.4,0,0.8-0.4,1-1v-0.2c0-0.4-0.4-0.6-1-0.6c-0.4,0-0.8,0.2-0.8,0.6
		C709,226.5,709.6,226.8,709.8,226.8z"/>
	<path class="st0" d="M709,196.8c0-1.9-1.5-3.8-3.4-3.8c-2.5,0-3.4,1.5-3.4,3.8c0,2.3,1.3,3.4,3.4,3.4
		C706.2,199.8,708.7,197.5,709,196.8z"/>
	<path class="st0" d="M712.5,227.2c-0.2,0-0.4,0.2-0.4,0.4c0,0.2,0.2,0.4,0.4,0.4c0.2,0,0.2-0.2,0.2-0.4
		C712.7,227.4,712.7,227.2,712.5,227.2z"/>
	<path class="st0" d="M712.5,264.9c-0.2,0-0.4,0.2-0.4,0.4s0.2,0.4,0.4,0.4c0.2,0,0.2-0.2,0.2-0.4S712.7,264.9,712.5,264.9z"/>
	<path class="st0" d="M686.8,251.6c1.7,0,10.5,3.6,15.4,6.9c2.5,1.7,3.6,3.6,6.8,3.4c-8.6-9.9-20.5-13.7-33.3-13.7
		c-9.5,0-17.7,1.7-26.6,5.1c3.4-8.9,5.1-17.1,5.1-26.6c0-12.7-3.8-24.7-13.7-33.3c-0.4,3.2,1.9,4.4,3.4,6.8l5.4,10.3
		c1.5,4,1.9,7,1.9,10.5v4c0,12.9-4.4,22.3-10.5,33.5c-1.5,2.9-3.9,3.6-3.5,6.8c3-1.7,17.4-8.9,20.5-10.3
		C666.5,251,678.4,251.6,686.8,251.6z"/>
	<path class="st0" d="M637.3,189.9c0-0.2,0-0.4-0.2-0.4c-0.2,0-0.4,0.2-0.4,0.4c0,0.2,0.2,0.4,0.4,0.4
		C637.3,190.3,637.3,190.1,637.3,189.9z"/>
	<path class="st0" d="M638.5,191.6c0,0.2,0.2,0.4,0.4,0.4s0.2-0.2,0.2-0.4c0-0.2,0-0.4-0.2-0.4S638.5,191.5,638.5,191.6z"/>
	<path class="st0" d="M710.8,264c0.2,0,0.2-0.2,0.2-0.4c0-0.2,0-0.4-0.2-0.4c-0.2,0-0.4,0.2-0.4,0.4
		C710.4,263.8,710.6,264,710.8,264z"/>
	<path class="st0" d="M538.4,114l10.9,3.8c3.9,1.8,6.1,3.8,8.5,6.3l2.8,2.9c9,9.3,12.5,18.9,16,31.2c0.9,3.1-0.2,5.2,2.3,7.3
		c1-3.4,6.3-18.6,7.5-21.7c3.5-9,12.5-16.9,18.5-22.8c1.2-1.2,10-4.7,15.8-5.8c3-0.5,5.1,0.1,7.3-2.3c-13-1.1-24.3,4.5-33.4,13.4
		c-6.8,6.6-11.5,13.6-15.5,22.3c-3.8-8.8-8.3-15.9-14.9-22.7c-8.9-9.1-20-15.1-33.1-14.3C533.1,114.1,535.5,113.3,538.4,114z"/>
	<path class="st0" d="M529,111.8c0.1-0.1,0-0.3-0.1-0.4c-0.1-0.1-0.3-0.3-0.4-0.1c-0.1,0.1-0.1,0.4,0,0.5
		C528.6,111.9,528.8,111.9,529,111.8z"/>
	<path class="st0" d="M526.5,111.7c0.1-0.1,0-0.3-0.1-0.4c-0.1-0.1-0.3-0.3-0.4-0.1s-0.1,0.4,0,0.5
		C526.1,111.9,526.4,111.9,526.5,111.7z"/>
	<path class="st0" d="M590.4,94.4c3.5-3.5,7.1-4.2,10.1-7.4c-3.8-0.6-6.5,1.5-8.9,3.9c-4.5,4.4-7.3,9.5-11.9,14
		c-3.6-3.7-5.4-8-9-11.7l-4.1-4.2c7.1,9.2,9.6,16.4,13,28C581.9,109.1,584.3,100.4,590.4,94.4z"/>
	<path class="st0" d="M564.1,89c-3.2-3.3-6.4-4.1-10.9-3.8l0.5,0.5C554.3,86.3,561,88.8,564.1,89z"/>
	<path class="st0" d="M604.1,87.2c0.3-0.3,0.3-0.8,0-1.3l-0.1-0.1c-0.3-0.3-0.7-0.1-1.1,0.3c-0.3,0.3-0.4,0.7-0.1,0.9
		C603.3,87.4,604,87.3,604.1,87.2z"/>
	<path class="st0" d="M606.8,86.1c0.1-0.1,0-0.3-0.1-0.4c-0.1-0.1-0.3-0.3-0.4-0.1c-0.1,0.1-0.1,0.4,0,0.5
		C606.4,86.3,606.7,86.3,606.8,86.1z"/>
	<path class="st0" d="M630.7,113.1c0.1-0.1,0-0.3-0.1-0.4c-0.1-0.1-0.3-0.3-0.4-0.1c-0.1,0.1-0.1,0.4,0,0.5
		C630.3,113.2,630.5,113.2,630.7,113.1z"/>
	<path class="st0" d="M633.1,113.1c0.1-0.1,0-0.3-0.1-0.4c-0.1-0.1-0.3-0.3-0.4-0.1c-0.1,0.1-0.1,0.4,0,0.5
		C632.7,113.3,633,113.3,633.1,113.1z"/>
	<path class="st0" d="M582.5,71c0.1-0.7,0.3-4,0.1-4.8c-1.3-1.4-3.7-1.7-5.1-0.3c-1.8,1.7-1.4,3.5,0.2,5.1
		C579.3,72.6,581,72.5,582.5,71z"/>
	<path class="st0" d="M491.4,231c-5.7-10.7-9.1-17.5-10.1-29.1v5.9c0,5.1,1.6,9.5,1.6,14.7c-6.5,0-12.1-1.7-18.3-1.7
		c-3.4,0-6.9,0.4-9.2,3.4c4.4,0.2,7.5-1.7,12.4-1.7C476.3,222.5,484.2,227,491.4,231z"/>
	<path class="st0" d="M512.3,224.9v-4c0-3.4,0-6.5,1.5-10.5l5-10.3c1.5-2.5,3.7-3.6,3.4-6.8c-9.9,8.6-13.7,20.6-13.7,33.3
		c0,9.5,1.7,17.7,5.1,26.6c-8.9-3.4-17.1-5.1-26.6-5.1c-12.7,0-24.7,3.8-33.3,13.7c3.2,0.2,4.4-1.7,6.8-3.4
		c4.9-3.2,13.7-6.9,15.4-6.9c8.4,0,20.4-0.6,29.1,3.4c3,1.3,17.5,8.6,20.6,10.3c0.4-3.2-1.7-4-3.2-6.8
		C516.2,247.2,512.3,237.9,512.3,224.9z"/>
	<path class="st0" d="M450.2,264.9c-0.2,0-0.2,0.2-0.2,0.4s0,0.4,0.2,0.4c0.2,0,0.4-0.2,0.4-0.4S450.3,264.9,450.2,264.9z"/>
	<path class="st0" d="M450.2,227.2c-0.2,0-0.2,0.2-0.2,0.4c0,0.2,0,0.4,0.2,0.4c0.2,0,0.4-0.2,0.4-0.4
		C450.5,227.4,450.3,227.2,450.2,227.2z"/>
	<path class="st0" d="M525.5,189.6c-0.2,0-0.2,0.2-0.2,0.4s0,0.4,0.2,0.4s0.4-0.2,0.4-0.4S525.7,189.6,525.5,189.6z"/>
	<path class="st0" d="M483.1,200.2c2.1-2.3,5.1-8.8,5.1-9.5v-0.8C484.3,192.8,483.1,195.6,483.1,200.2z"/>
	<path class="st0" d="M451.7,263.6c0,0.2,0,0.4,0.2,0.4c0.2,0,0.4-0.2,0.4-0.4c0-0.2-0.2-0.4-0.4-0.4
		C451.7,263.2,451.7,263.4,451.7,263.6z"/>
	<path class="st0" d="M460.4,196.8c0-2.3-1-3.8-3.4-3.8c-1.9,0-3.4,1.9-3.4,3.8c0.4,0.8,2.9,3,3.4,3.4
		C459.1,200.2,460.4,199.1,460.4,196.8z"/>
	<path class="st0" d="M523.8,191.3c-0.2,0-0.2,0.2-0.2,0.4c0,0.2,0,0.4,0.2,0.4c0.2,0,0.4-0.2,0.4-0.4
		C524.2,191.5,524,191.3,523.8,191.3z"/>
	<path class="st0" d="M452.8,226.8c0.2,0,0.8-0.4,0.8-1.1c0-0.4-0.4-0.6-0.8-0.6c-0.6,0-1,0.2-1,0.6v0.2
		C452.1,226.5,452.4,226.8,452.8,226.8z"/>
</g>
<g>
</g>
<g>
</g>
<g>
</g>
<g>
</g>
<g>
</g>
<g>
</g>
<g>
</g>
<g>
</g>
<g>
</g>
<g>
</g>
<g>
</g>
<g>
</g>
<g>
</g>
<g>
</g>
<g>
</g>
</svg>
